<mxfile host="app.diagrams.net" modified="2024-02-27T18:06:56.000Z" agent="Mozilla/5.0 (Windows NT 10.0; Win64; x64) AppleWebKit/537.36 (KHTML, like Gecko) Chrome/121.0.0.0 Safari/537.36" etag="i_xuqDAjasNbc26IN1Vb" version="23.1.7" type="google">
  <diagram name="Pagina-1" id="R4mz-SI6igfZkroWyhTK">
    <mxGraphModel grid="1" page="1" gridSize="10" guides="1" tooltips="1" connect="1" arrows="1" fold="1" pageScale="1" pageWidth="827" pageHeight="1169" math="0" shadow="0">
      <root>
        <mxCell id="0" />
        <mxCell id="1" parent="0" />
        <mxCell id="7o8wrnjqnFoeubSUeJYj-1" value="Negozio" style="swimlane;fontStyle=0;childLayout=stackLayout;horizontal=1;startSize=26;fillColor=none;horizontalStack=0;resizeParent=1;resizeParentMax=0;resizeLast=0;collapsible=1;marginBottom=0;whiteSpace=wrap;html=1;" vertex="1" parent="1">
          <mxGeometry x="200" y="-880" width="140" height="52" as="geometry" />
        </mxCell>
        <mxCell id="7o8wrnjqnFoeubSUeJYj-2" value="- strumenti: ArrayList" style="text;strokeColor=none;fillColor=none;align=left;verticalAlign=top;spacingLeft=4;spacingRight=4;overflow=hidden;rotatable=0;points=[[0,0.5],[1,0.5]];portConstraint=eastwest;whiteSpace=wrap;html=1;" vertex="1" parent="7o8wrnjqnFoeubSUeJYj-1">
          <mxGeometry y="26" width="140" height="26" as="geometry" />
        </mxCell>
        <mxCell id="7o8wrnjqnFoeubSUeJYj-5" value="Strumento (Masterclass)" style="swimlane;fontStyle=0;childLayout=stackLayout;horizontal=1;startSize=26;fillColor=none;horizontalStack=0;resizeParent=1;resizeParentMax=0;resizeLast=0;collapsible=1;marginBottom=0;whiteSpace=wrap;html=1;" vertex="1" parent="1">
          <mxGeometry x="-150" y="-880" width="210" height="168" as="geometry" />
        </mxCell>
        <mxCell id="7o8wrnjqnFoeubSUeJYj-6" value="- nome: String" style="text;strokeColor=none;fillColor=none;align=left;verticalAlign=top;spacingLeft=4;spacingRight=4;overflow=hidden;rotatable=0;points=[[0,0.5],[1,0.5]];portConstraint=eastwest;whiteSpace=wrap;html=1;" vertex="1" parent="7o8wrnjqnFoeubSUeJYj-5">
          <mxGeometry y="26" width="210" height="26" as="geometry" />
        </mxCell>
        <mxCell id="7o8wrnjqnFoeubSUeJYj-17" value="- tipo: String&lt;br&gt;&lt;br&gt;-modello: String" style="text;strokeColor=none;fillColor=none;align=left;verticalAlign=top;spacingLeft=4;spacingRight=4;overflow=hidden;rotatable=0;points=[[0,0.5],[1,0.5]];portConstraint=eastwest;whiteSpace=wrap;html=1;" vertex="1" parent="7o8wrnjqnFoeubSUeJYj-5">
          <mxGeometry y="52" width="210" height="58" as="geometry" />
        </mxCell>
        <mxCell id="7o8wrnjqnFoeubSUeJYj-7" value="- marca: String&lt;br&gt;&lt;br&gt;- prezzo: double" style="text;strokeColor=none;fillColor=none;align=left;verticalAlign=top;spacingLeft=4;spacingRight=4;overflow=hidden;rotatable=0;points=[[0,0.5],[1,0.5]];portConstraint=eastwest;whiteSpace=wrap;html=1;" vertex="1" parent="7o8wrnjqnFoeubSUeJYj-5">
          <mxGeometry y="110" width="210" height="58" as="geometry" />
        </mxCell>
        <mxCell id="7o8wrnjqnFoeubSUeJYj-32" style="edgeStyle=orthogonalEdgeStyle;rounded=0;orthogonalLoop=1;jettySize=auto;html=1;" edge="1" parent="1" source="7o8wrnjqnFoeubSUeJYj-9">
          <mxGeometry relative="1" as="geometry">
            <mxPoint x="-40" y="-711.8285435267857" as="targetPoint" />
          </mxGeometry>
        </mxCell>
        <mxCell id="7o8wrnjqnFoeubSUeJYj-9" value="Fisarmonica extends Strumento" style="swimlane;fontStyle=0;childLayout=stackLayout;horizontal=1;startSize=26;fillColor=none;horizontalStack=0;resizeParent=1;resizeParentMax=0;resizeLast=0;collapsible=1;marginBottom=0;whiteSpace=wrap;html=1;" vertex="1" parent="1">
          <mxGeometry x="40" y="-307" width="210" height="78" as="geometry" />
        </mxCell>
        <mxCell id="7o8wrnjqnFoeubSUeJYj-10" value="- numBassi: int" style="text;strokeColor=none;fillColor=none;align=left;verticalAlign=top;spacingLeft=4;spacingRight=4;overflow=hidden;rotatable=0;points=[[0,0.5],[1,0.5]];portConstraint=eastwest;whiteSpace=wrap;html=1;" vertex="1" parent="7o8wrnjqnFoeubSUeJYj-9">
          <mxGeometry y="26" width="210" height="26" as="geometry" />
        </mxCell>
        <mxCell id="7o8wrnjqnFoeubSUeJYj-11" value="- tonalita: String" style="text;strokeColor=none;fillColor=none;align=left;verticalAlign=top;spacingLeft=4;spacingRight=4;overflow=hidden;rotatable=0;points=[[0,0.5],[1,0.5]];portConstraint=eastwest;whiteSpace=wrap;html=1;" vertex="1" parent="7o8wrnjqnFoeubSUeJYj-9">
          <mxGeometry y="52" width="210" height="26" as="geometry" />
        </mxCell>
        <mxCell id="7o8wrnjqnFoeubSUeJYj-27" style="edgeStyle=orthogonalEdgeStyle;rounded=0;orthogonalLoop=1;jettySize=auto;html=1;" edge="1" parent="1" source="7o8wrnjqnFoeubSUeJYj-23">
          <mxGeometry relative="1" as="geometry">
            <mxPoint x="-40" y="-713.0475725446429" as="targetPoint" />
          </mxGeometry>
        </mxCell>
        <mxCell id="7o8wrnjqnFoeubSUeJYj-23" value="Violino extends Strumento" style="swimlane;fontStyle=0;childLayout=stackLayout;horizontal=1;startSize=26;fillColor=none;horizontalStack=0;resizeParent=1;resizeParentMax=0;resizeLast=0;collapsible=1;marginBottom=0;whiteSpace=wrap;html=1;" vertex="1" parent="1">
          <mxGeometry x="-280" y="-320" width="160" height="104" as="geometry" />
        </mxCell>
        <mxCell id="7o8wrnjqnFoeubSUeJYj-24" value="- numCorde: int" style="text;strokeColor=none;fillColor=none;align=left;verticalAlign=top;spacingLeft=4;spacingRight=4;overflow=hidden;rotatable=0;points=[[0,0.5],[1,0.5]];portConstraint=eastwest;whiteSpace=wrap;html=1;" vertex="1" parent="7o8wrnjqnFoeubSUeJYj-23">
          <mxGeometry y="26" width="160" height="26" as="geometry" />
        </mxCell>
        <mxCell id="7o8wrnjqnFoeubSUeJYj-25" value="- annoCostruzione: int" style="text;strokeColor=none;fillColor=none;align=left;verticalAlign=top;spacingLeft=4;spacingRight=4;overflow=hidden;rotatable=0;points=[[0,0.5],[1,0.5]];portConstraint=eastwest;whiteSpace=wrap;html=1;" vertex="1" parent="7o8wrnjqnFoeubSUeJYj-23">
          <mxGeometry y="52" width="160" height="26" as="geometry" />
        </mxCell>
        <mxCell id="7o8wrnjqnFoeubSUeJYj-26" value="- archetto: String" style="text;strokeColor=none;fillColor=none;align=left;verticalAlign=top;spacingLeft=4;spacingRight=4;overflow=hidden;rotatable=0;points=[[0,0.5],[1,0.5]];portConstraint=eastwest;whiteSpace=wrap;html=1;" vertex="1" parent="7o8wrnjqnFoeubSUeJYj-23">
          <mxGeometry y="78" width="160" height="26" as="geometry" />
        </mxCell>
        <mxCell id="7o8wrnjqnFoeubSUeJYj-33" value="N...N" style="text;align=center;fontStyle=1;verticalAlign=middle;spacingLeft=3;spacingRight=3;strokeColor=none;rotatable=0;points=[[0,0.5],[1,0.5]];portConstraint=eastwest;html=1;" vertex="1" parent="1">
          <mxGeometry x="-120" y="-290" width="80" height="26" as="geometry" />
        </mxCell>
        <mxCell id="7o8wrnjqnFoeubSUeJYj-34" value="N...N" style="text;align=center;fontStyle=1;verticalAlign=middle;spacingLeft=3;spacingRight=3;strokeColor=none;rotatable=0;points=[[0,0.5],[1,0.5]];portConstraint=eastwest;html=1;" vertex="1" parent="1">
          <mxGeometry x="-40" y="-290" width="80" height="26" as="geometry" />
        </mxCell>
        <mxCell id="7o8wrnjqnFoeubSUeJYj-35" style="edgeStyle=orthogonalEdgeStyle;rounded=0;orthogonalLoop=1;jettySize=auto;html=1;entryX=1;entryY=0.5;entryDx=0;entryDy=0;" edge="1" parent="1" source="7o8wrnjqnFoeubSUeJYj-2" target="7o8wrnjqnFoeubSUeJYj-6">
          <mxGeometry relative="1" as="geometry" />
        </mxCell>
        <mxCell id="7o8wrnjqnFoeubSUeJYj-36" value="1...N" style="text;align=center;fontStyle=1;verticalAlign=middle;spacingLeft=3;spacingRight=3;strokeColor=none;rotatable=0;points=[[0,0.5],[1,0.5]];portConstraint=eastwest;html=1;" vertex="1" parent="1">
          <mxGeometry x="120" y="-867" width="80" height="26" as="geometry" />
        </mxCell>
      </root>
    </mxGraphModel>
  </diagram>
</mxfile>
